<?xml version="1.0" encoding="iso-8859-1"?>
<!-- Uploaded to: SVG Repo, www.svgrepo.com, Generator: SVG Repo Mixer Tools -->
<!DOCTYPE svg PUBLIC "-//W3C//DTD SVG 1.1//EN" "http://www.w3.org/Graphics/SVG/1.1/DTD/svg11.dtd">
<svg fill="#000000" height="800px" width="800px" version="1.1" id="Capa_1" xmlns="http://www.w3.org/2000/svg" xmlns:xlink="http://www.w3.org/1999/xlink" 
	 viewBox="0 0 277.533 277.533" xml:space="preserve">
<g>
	<path d="M245.2,62.246c-2.165-1.377-4.882-1.552-7.204-0.465L211.39,74.233c4.222-7.284,6.652-15.729,6.652-24.737
		C218.042,22.204,195.839,0,168.548,0c-17.696,0-33.244,9.341-41.996,23.345C117.8,9.341,102.252,0,84.556,0
		C57.264,0,35.06,22.204,35.06,49.496c0,15.419,7.09,29.211,18.178,38.296c-0.865,1.223-1.379,2.713-1.379,4.325v66.576
		c0,4.142,3.357,7.5,7.5,7.5h16.324l9.781,21.785c1.21,2.694,3.889,4.428,6.842,4.428h14.084l-55.082,52.564
		c-2.997,2.859-3.107,7.607-0.248,10.604c1.474,1.545,3.448,2.322,5.427,2.322c1.86,0,3.725-0.689,5.177-2.074l55.949-53.392v67.603
		c0,4.142,3.357,7.5,7.5,7.5c4.143,0,7.5-3.358,7.5-7.5v-68.121l56.075,51.208c1.439,1.314,3.25,1.962,5.056,1.962
		c2.033,0,4.061-0.822,5.54-2.442c2.793-3.059,2.578-7.803-0.48-10.596l-54.355-49.638h13.474c2.953,0,5.632-1.733,6.842-4.428
		l9.783-21.785h14.656l48.794,22.836c1.011,0.473,2.096,0.707,3.179,0.707c1.404,0,2.803-0.394,4.025-1.172
		c2.164-1.376,3.475-3.763,3.475-6.328V68.574C248.675,66.009,247.364,63.623,245.2,62.246z M126.552,75.647
		c2.039,3.262,4.44,6.274,7.159,8.97h-14.318C122.111,81.921,124.513,78.909,126.552,75.647z M168.548,15
		c19.021,0,34.494,15.475,34.494,34.496s-15.474,34.496-34.494,34.496c-19.021,0-34.496-15.475-34.496-34.496S149.526,15,168.548,15
		z M84.556,15c19.021,0,34.496,15.475,34.496,34.496s-15.475,34.496-34.496,34.496c-19.021,0-34.496-15.475-34.496-34.496
		S65.534,15,84.556,15z M66.858,99.617H183.37v51.576h-13.678H80.536H66.858V99.617z M153.067,177.406H97.159l-5.034-11.213h65.977
		L153.067,177.406z M233.675,170.446l-35.305-16.523V96.888l35.305-16.523V170.446z"/>
	<path d="M36.358,101.262c-4.143,0-7.5,3.358-7.5,7.5v33.289c0,4.142,3.357,7.5,7.5,7.5s7.5-3.358,7.5-7.5v-33.289
		C43.858,104.62,40.501,101.262,36.358,101.262z"/>
</g>
</svg>